<?xml version="1.0" encoding="utf-8"?>
<!-- Generator: Adobe Illustrator 27.9.3, SVG Export Plug-In . SVG Version: 9.03 Build 53313)  -->
<svg version="1.1" id="Ebene_1" xmlns="http://www.w3.org/2000/svg" xmlns:xlink="http://www.w3.org/1999/xlink" x="0px" y="0px"
	 viewBox="0 0 1417.3 296.8" style="enable-background:new 0 0 1417.3 296.8;" xml:space="preserve">
<style type="text/css">
	.st0{clip-path:url(#SVGID_00000009561144828078124350000000583037267038986643_);fill:#706F6F;}
	.st1{fill:#706F6F;}
	.st2{clip-path:url(#SVGID_00000102519421311091069930000009038658969444680383_);fill:#706F6F;}
	.st3{clip-path:url(#SVGID_00000143603928294719782880000011272578101118129553_);fill:#706F6F;}
	.st4{clip-path:url(#SVGID_00000033363136597829059500000004796195171587786170_);fill:#706F6F;}
	.st5{clip-path:url(#SVGID_00000053538386145155265420000016257141232806849443_);fill:#706F6F;}
</style>
<g>
	<defs>
		<rect id="SVGID_1_" x="4.3" y="4" width="1408.7" height="288"/>
	</defs>
	<clipPath id="SVGID_00000039842358803540705540000000806348932881641617_">
		<use xlink:href="#SVGID_1_"  style="overflow:visible;"/>
	</clipPath>
	<path style="clip-path:url(#SVGID_00000039842358803540705540000000806348932881641617_);fill:#706F6F;" d="M7.8,133.3
		c5.4,3.5,17.4,9.3,32.2,9.3c12.2,0,23-6.7,23-21.9c0-10.9-6.3-15.7-19.7-23.1l-14.1-7.8C14,81.7,4.3,69.7,4.3,50.1
		C4.3,23,26.7,8.8,52.1,8.8c16.1,0,27.4,4.1,31.7,5.4l-1.3,23.3C75.8,34.9,66.9,31,54.1,31C40.1,31,33,38.4,33,48.8
		c0,11.3,7.6,15.7,16.1,20.5l16.3,9.1c17.9,10,26.3,19.6,26.3,40.9c0,30.8-22,45.6-50.9,45.6c-15.2,0-27-2.1-34.6-6.7L7.8,133.3z"/>
</g>
<polygon class="st1" points="136.5,33.2 102.5,33.2 102.5,11 198,11 198,33.2 164.3,33.2 164.3,162.7 136.5,162.7 "/>
<g>
	<defs>
		<rect id="SVGID_00000130632595394586761750000010132957483334822303_" x="4.3" y="4" width="1408.7" height="288"/>
	</defs>
	<clipPath id="SVGID_00000047753852626656362650000008469815616722889638_">
		<use xlink:href="#SVGID_00000130632595394586761750000010132957483334822303_"  style="overflow:visible;"/>
	</clipPath>
	<path style="clip-path:url(#SVGID_00000047753852626656362650000008469815616722889638_);fill:#706F6F;" d="M426.1,77.1
		c14.8,0,24.8-7.6,24.8-23.1c0-17.4-9.1-21.7-24.8-21.7h-11.3v44.8H426.1z M386.9,11h47.4c27,0,45.2,12.2,45.2,40
		c0,19.8-12.4,33-29.3,35.7v0.7c5.6,0.8,12,3.5,16.8,17.6l19.8,57.8h-29.6l-15-49.3c-3.7-12-10.9-15.9-21.1-15.9h-6.3v65.2h-27.8V11
		z"/>
</g>
<polygon class="st1" points="500.9,138.4 560.7,33.2 502.6,33.2 502.6,11 593,11 593,34 532.6,140.5 593.9,140.5 593.9,162.7 
	500.9,162.7 "/>
<polygon class="st1" points="671,11 691.7,11 733.8,142.7 734.2,142.7 776.5,11 797.1,11 797.1,162.7 784.5,162.7 784.5,23.6 
	784.1,23.6 739.3,162.7 729,162.7 684.1,23.6 683.6,23.6 683.6,162.7 671,162.7 "/>
<polygon class="st1" points="835.7,11 900.1,11 900.1,23.6 849.2,23.6 849.2,77.5 897.7,77.5 897.7,90.2 849.2,90.2 849.2,150.1 
	902.5,150.1 902.5,162.7 835.7,162.7 "/>
<g>
	<defs>
		<rect id="SVGID_00000181793630781034647350000008122571937723919494_" x="4.3" y="4" width="1408.7" height="288"/>
	</defs>
	<clipPath id="SVGID_00000106125780610505144680000015565594821486020514_">
		<use xlink:href="#SVGID_00000181793630781034647350000008122571937723919494_"  style="overflow:visible;"/>
	</clipPath>
	<path style="clip-path:url(#SVGID_00000106125780610505144680000015565594821486020514_);fill:#706F6F;" d="M943.7,150.1h13.9
		c33.7,0,52.2-25.2,52.2-63.2c0-23.7-3.7-63.3-54.6-63.3h-11.5V150.1z M930.2,11H950c50.4,0,74.1,24.5,74.1,73.7
		c0,44.1-21.5,78-70.4,78h-23.5V11z"/>
</g>
<rect x="1055.2" y="11" class="st1" width="13.5" height="151.7"/>
<g>
	<defs>
		<rect id="SVGID_00000169529586698832015960000008316358593831240857_" x="4.3" y="4" width="1408.7" height="288"/>
	</defs>
	<clipPath id="SVGID_00000102517528295691789860000010693016507625238446_">
		<use xlink:href="#SVGID_00000169529586698832015960000008316358593831240857_"  style="overflow:visible;"/>
	</clipPath>
	<path style="clip-path:url(#SVGID_00000102517528295691789860000010693016507625238446_);fill:#706F6F;" d="M1193.9,159.4
		c-4.1,1.5-13.3,4.8-25.9,4.8c-45,0-64.4-37.6-64.4-78.2c0-39.2,18.5-76.6,65.2-76.6c7.8,0,18.3,1.6,25.4,5l-0.6,15.2
		c-4.2-3.5-15-7.6-25.9-7.6c-10.7,0-49.8,5-49.8,64.4c0,52.8,32.2,65.2,49.6,65.2c11.5,0,17.4-2.8,25.6-6.7L1193.9,159.4z"/>
</g>
<path class="st1" d="M1237.6,108.4h52.4l-25.6-83.1h-0.4L1237.6,108.4z M1256.9,11h14.4l50.4,151.7h-14.3l-13.3-41.7h-60.5
	l-13.7,41.7h-13.5L1256.9,11z"/>
<polygon class="st1" points="1350.2,11 1350.2,162.7 1413,162.7 1413,150.1 1363.7,150.1 1363.7,11 "/>
<g>
	<defs>
		<rect id="SVGID_00000150810304171925995390000010261515902744620213_" x="4.3" y="4" width="1408.7" height="288"/>
	</defs>
	<clipPath id="SVGID_00000039118976281297008030000006402318657030749623_">
		<use xlink:href="#SVGID_00000150810304171925995390000010261515902744620213_"  style="overflow:visible;"/>
	</clipPath>
	<path style="clip-path:url(#SVGID_00000039118976281297008030000006402318657030749623_);fill:#706F6F;" d="M283,4
		c-16.7,0-32.2,5-45.2,13.5c14.1,1.2,25.1,3,45.3,3c20.2,0,31-1.8,45.2-3C315.3,8.9,299.8,4,283,4L283,4z"/>
	<path style="clip-path:url(#SVGID_00000039118976281297008030000006402318657030749623_);fill:#706F6F;" d="M237.8,155.5
		c13,8.5,28.5,13.5,45.3,13.5c16.7,0,32.2-5,45.2-13.5c-14.2-1.2-25.1-3-45.2-3C262.9,152.5,252,154.3,237.8,155.5"/>
	<path style="clip-path:url(#SVGID_00000039118976281297008030000006402318657030749623_);fill:#706F6F;" d="M283,28.7
		c-22.9,0-31.1,4.1-53.7,4.1h-9.1c-2.2,2.6-4.3,5.3-6.2,8.3h15.3c22.9,0,30.7,4.1,53.6,4.1c22.9,0,30.7-4.1,53.6-4.1H352
		c-1.9-2.9-4-5.6-6.2-8.3h-9.1C313.9,32.9,306,28.7,283,28.7"/>
	<path style="clip-path:url(#SVGID_00000039118976281297008030000006402318657030749623_);fill:#706F6F;" d="M283,127.8
		c-22.9,0-31.1,4.1-53.7,4.1h-15.3c1.9,2.9,4,5.6,6.2,8.3h9.1c22.9,0,30.7,4.1,53.6,4.1c22.9,0,30.7-4.1,53.6-4.1h9.1
		c2.2-2.6,4.3-5.3,6.2-8.3h-15.3C313.9,131.9,306,127.8,283,127.8"/>
	<path style="clip-path:url(#SVGID_00000039118976281297008030000006402318657030749623_);fill:#706F6F;" d="M283,53.5
		c-15.3,0-20.2,4.1-35.7,4.1h-41.6c-1,2.7-1.9,5.5-2.6,8.3h44.2c15.2,0,20.5,4.1,35.7,4.1c15.3,0,20.3-4.1,35.7-4.1H363
		c-0.7-2.8-1.6-5.6-2.6-8.3h-41.6C303.2,57.6,298.3,53.5,283,53.5"/>
	<path style="clip-path:url(#SVGID_00000039118976281297008030000006402318657030749623_);fill:#706F6F;" d="M283,103
		c-15.3,0-20.2,4.1-35.7,4.1h-44.2c0.7,2.8,1.6,5.6,2.6,8.3h41.6c15.2,0,20.5,4.1,35.7,4.1c15.3,0,20.3-4.1,35.7-4.1h41.6
		c1-2.7,1.9-5.4,2.6-8.3h-44.2C303.2,107.2,298.3,103,283,103"/>
	<path style="clip-path:url(#SVGID_00000039118976281297008030000006402318657030749623_);fill:#706F6F;" d="M283,78.2
		c-7.6,0-10.2,4.2-17.9,4.2h-64.6c0,1.3-0.1,2.7-0.1,4.1c0,1.4,0,2.7,0.1,4.1h64.6c7.7,0,10.3,4.1,17.9,4.1c7.6,0,10.2-4.1,17.9-4.1
		h64.6c0.1-1.4,0.1-2.8,0.1-4.1c0-1.4,0-2.8-0.1-4.1h-64.6C293.2,82.4,290.7,78.2,283,78.2"/>
	<path style="clip-path:url(#SVGID_00000039118976281297008030000006402318657030749623_);fill:#706F6F;" d="M915.2,227.7h-11.5
		l13.9,46.6c-1.8,7-3.7,8.6-7.3,8.6c-1.1,0-2.3-0.1-3.7-0.4l-0.7,8.6c1.7,0.5,3.9,0.8,5.8,0.8c8.7,0,13.5-4,17.5-17l14.3-47.2h-11.2
		c-6.9,28.2-8,33-8.6,36.1h-0.2C923.1,260.7,922.2,256.1,915.2,227.7 M872.8,235.4c0-2.3-0.2-5.8-0.4-7.7h-10.3
		c0.4,4.7,0.4,9.2,0.4,13.5v31.3h10.8v-22.2c0-8.5,2.7-15.2,8-15.2c5.1,0,5.9,5.5,5.9,13.4v24h10.8V245c0-11.8-3.8-18.4-13.2-18.4
		c-5.6,0-9.8,3.3-12,8.8H872.8z M842.6,251.3c0,3.5-0.4,6.4-1.2,8.6c-1.3,3.5-4.4,6.1-8.5,6.1c-4.1,0-6.5-2.9-6.5-6.7
		c0-5.4,4.4-8.1,12.7-8.1C840.5,251.1,841.8,251.2,842.6,251.3 M821.1,238.1c3.6-2.4,8.1-3.6,12.1-3.6c6.2,0,9.2,3.4,9.2,9.9v0.3
		c-1.8-0.2-4.1-0.3-5.6-0.3c-12.9,0-20.4,5.2-20.4,15c0,8.3,5.1,13.9,13.8,13.9c6.4,0,10.6-2.9,13-7.8h0.2c-0.1,1.2-0.1,2.5-0.1,3.5
		c0,1.3,0.1,2.8,0.2,3.5h9.2c-0.3-3.4-0.4-8.6-0.4-13.9c0-2.6,0.2-9.4,0.2-13.8c0-11.1-4.5-18.3-17.5-18.3c-4.7,0-10.2,1-14.3,3
		L821.1,238.1z M790.3,235c5.4,0,8.2,6.4,8.2,15.2c0,8.6-3,15.4-8.2,15.4c-5.6,0-8.7-6.7-8.7-15.1C781.6,241.9,784.8,235,790.3,235
		 M781.5,234.4c-0.1-2-0.2-4.6-0.4-6.6h-10.2c0.3,3.2,0.4,9,0.4,13.1v50.3h11v-13.8c0-3.3-0.1-8.2-0.3-10.6h0.2
		c2.1,4.4,5.8,7,11.3,7c10.1,0,16.2-10.3,16.2-23.8c0-13.7-6.4-23.3-16.6-23.3c-5.6,0-9.4,2.9-11.5,7.8H781.5z M711.8,235.4
		c0-2.3-0.2-5.8-0.4-7.7h-10.3c0.3,4.7,0.4,9.2,0.4,13.5v31.3h10.8v-22.2c0-9.2,2.6-15.1,7.6-15.1c4.8,0,5.8,4.4,5.8,12.3v25h10.8
		v-23.3c0-8.6,2.7-14,7.7-14s5.8,4.4,5.8,12.3v25H761V245c0-12-3.7-18.4-12.7-18.4c-6.1,0-10.6,3.5-12.7,9.1
		c-1.7-6-5.2-9.1-11.4-9.1c-5.4,0-9.7,3.1-12,8.8H711.8z M673.5,234.9c5.6,0,8.4,6.1,8.4,15.4s-2.7,15-8.2,15c-5.8,0-8.5-5.9-8.5-15
		C665.2,240.9,668,234.9,673.5,234.9 M673.6,226.6c-12.5,0-19.8,9.5-19.8,23.6c0,14,7.2,23.6,19.6,23.6c12.5,0,19.6-9.5,19.6-23.6
		C693.1,236.2,686,226.6,673.6,226.6 M648.5,211.9c-3-0.8-5.8-1-9.2-1c-18.1,0-29.2,13-29.2,30.9c0,19,11,31.6,29.2,31.6
		c3.6,0,6.3-0.3,9.5-1.1l-0.6-9.9c-2.9,1.1-5.4,1.5-8.3,1.5c-11,0-17.9-8.9-17.9-22c0-11.8,5.9-21.8,17.9-21.8
		c2.6,0,5.4,0.4,7.9,1.5L648.5,211.9z M557.6,246c0.4-7.3,4.1-12,8.9-12c5.1,0,7.8,4.5,7.8,12H557.6z M584.1,253.3
		c0.1-1,0.2-3,0.2-4.1c0-14.7-5.8-22.6-17.8-22.6c-11.9,0-19.5,9.1-19.5,23.2c0,14.7,7.9,23.9,22.6,23.9c4.4,0,8.3-0.8,11.6-2
		l-0.3-8.6c-3.5,1.5-6.5,2.2-10.4,2.2c-8.2,0-12.6-5.2-12.8-12H584.1z M515.3,227.7h-11.5l13.4,44.9h12.8l13.5-44.9h-11.1
		c-6.6,26.5-8,32.6-8.6,35.8h-0.2C523.1,260.4,521.9,254.3,515.3,227.7 M488.6,251.3c0,3.5-0.3,6.4-1.2,8.6
		c-1.3,3.5-4.4,6.1-8.5,6.1c-4.1,0-6.5-2.9-6.5-6.7c0-5.4,4.4-8.1,12.6-8.1C486.6,251.1,487.9,251.2,488.6,251.3 M467.2,238.1
		c3.6-2.4,8.1-3.6,12.1-3.6c6.2,0,9.2,3.4,9.2,9.9v0.3c-1.8-0.2-4.1-0.3-5.6-0.3c-12.9,0-20.4,5.2-20.4,15c0,8.3,5.1,13.9,13.8,13.9
		c6.4,0,10.6-2.9,13-7.8h0.2c-0.1,1.2-0.1,2.5-0.1,3.5c0,1.3,0.1,2.8,0.2,3.5h9.2c-0.3-3.4-0.4-8.6-0.4-13.9c0-2.6,0.2-9.4,0.2-13.8
		c0-11.1-4.5-18.3-17.4-18.3c-4.7,0-10.2,1-14.3,3L467.2,238.1z M433.9,272.6h13.6l13.2-60.9h-10.6c-7.4,38-8.6,46.5-9.1,51h-0.2
		c-0.4-4.4-1.6-13-8.6-51H418c-6.9,38-7.9,46.5-8.4,51h-0.2c-0.4-4.4-1.6-12.9-9.1-51h-11.4l13.3,60.9H416
		c7.4-41.1,8.3-47.9,8.6-51.9h0.2C425.2,224.7,426.2,231.5,433.9,272.6 M356.7,272.6h12.7l-16.6-24.9l15.5-20h-12.7l-4.9,6.9
		c-2.9,4.1-5.7,8.3-8.2,12.5h-0.2v-36.8h-10.8v62.3h10.8v-22.9h0.2c1.7,3.2,4.1,7.2,5.9,10.1L356.7,272.6z M323.7,227.7
		c-2.2-0.6-4.6-0.8-7.2-0.8c-13.7,0-21.9,9.5-21.9,23.2c0,13.9,8.3,23.1,21.6,23.1c3.1,0,5.4-0.3,7.7-1l-0.7-8.4
		c-1.7,0.5-3.4,0.7-5.1,0.7c-7.9,0-12.2-6.1-12.2-14.7c0-8.3,4.4-14.5,11.8-14.5c1.9,0,3.5,0.2,5.1,0.7L323.7,227.7z M268.8,234.9
		c5.6,0,8.4,6.1,8.4,15.4s-2.7,15-8.2,15c-5.8,0-8.5-5.9-8.5-15C260.5,240.9,263.4,234.9,268.8,234.9 M268.9,226.6
		c-12.5,0-19.8,9.5-19.8,23.6c0,14,7.2,23.6,19.6,23.6c12.5,0,19.6-9.5,19.6-23.6C288.4,236.2,281.3,226.6,268.9,226.6 M216.2,210.3
		h-10.9v62.3h10.9V253c0-10.1,1.7-17.7,7.9-17.7c5.1,0,6,5.2,6,13.3v24h10.7V245c0-12-3.7-18.4-13-18.4c-5.5,0-9.7,3.5-11.9,8h-0.2
		c0.2-2.4,0.3-7.9,0.3-11.5V210.3z M193.6,212.6c-3.9-1.5-8.1-2.1-12.7-2.1c-11.5,0-19.5,6.7-19.5,17.4c0,8.1,3.5,12.6,13.4,17.4
		c7.8,3.8,10.1,6.5,10.1,11c0,5.2-3.6,8.1-9.4,8.1c-4,0-8.3-0.9-12.7-3.1l-1,9.9c4,1.6,9.2,2.4,14.3,2.4c12.4,0,20.4-7.4,20.4-18.9
		c0-8.6-4.6-13.5-14.2-18.1c-8-3.8-9.5-6.3-9.5-9.9c0-4.4,3.6-7.3,8.9-7.3c3.4,0,6.7,0.5,10.9,2.5L193.6,212.6z M108.6,246
		c0.4-7.3,4.1-12,8.9-12c5.1,0,7.8,4.5,7.8,12H108.6z M135.1,253.3c0.1-1,0.2-3,0.2-4.1c0-14.7-5.9-22.6-17.8-22.6
		c-11.9,0-19.5,9.1-19.5,23.2c0,14.7,7.9,23.9,22.6,23.9c4.4,0,8.3-0.8,11.6-2l-0.3-8.6c-3.5,1.5-6.5,2.2-10.4,2.2
		c-8.2,0-12.6-5.2-12.8-12H135.1z M65.1,210.3H54.2v62.3h10.9V253c0-10.1,1.7-17.7,7.9-17.7c5.1,0,6,5.2,6,13.3v24h10.7V245
		c0-12-3.7-18.4-13-18.4c-5.5,0-9.7,3.5-11.9,8h-0.2c0.2-2.4,0.4-7.9,0.4-11.5V210.3z M8.8,211.7v9l13.7-0.2v52.1h11.3v-52.1
		l13.6,0.2v-9H8.8z"/>
</g>
</svg>
